<svg xmlns="http://www.w3.org/2000/svg" xmlns:xlink="http://www.w3.org/1999/xlink" width="940" zoomAndPan="magnify" viewBox="0 0 705 591.000005" height="788" preserveAspectRatio="xMidYMid meet" version="1.0"><defs><g/><clipPath id="315a6b485b"><path d="M 461.699219 163.441406 L 676.425781 163.441406 L 676.425781 367.785156 L 461.699219 367.785156 Z M 461.699219 163.441406 " clip-rule="nonzero"/></clipPath><clipPath id="da5f5fcd20"><path d="M 443.707031 186.097656 L 642.71875 186.097656 L 642.71875 388.296875 L 443.707031 388.296875 Z M 443.707031 186.097656 " clip-rule="nonzero"/></clipPath><clipPath id="5ccbd597df"><path d="M 515.328125 202 L 626.882812 202 L 626.882812 373.511719 L 515.328125 373.511719 Z M 515.328125 202 " clip-rule="nonzero"/></clipPath><clipPath id="6895907a41"><path d="M 493.398438 186.925781 L 605 186.925781 L 605 362 L 493.398438 362 Z M 493.398438 186.925781 " clip-rule="nonzero"/></clipPath><clipPath id="6cf9004f1d"><path d="M 563.636719 240.371094 L 640.003906 240.371094 L 640.003906 356.695312 L 563.636719 356.695312 Z M 563.636719 240.371094 " clip-rule="nonzero"/></clipPath><clipPath id="aac945d57f"><path d="M 431.714844 144.625 L 704.402344 144.625 L 704.402344 417.84375 L 431.714844 417.84375 Z M 431.714844 144.625 " clip-rule="nonzero"/></clipPath></defs><g clip-path="url(#315a6b485b)"><path fill="#000000" d="M 461.699219 163.441406 L 676.421875 163.441406 L 676.421875 367.785156 L 461.699219 367.785156 Z M 461.699219 163.441406 " fill-opacity="1" fill-rule="nonzero"/></g><g clip-path="url(#da5f5fcd20)"><path fill="#000000" d="M 443.707031 186.097656 L 642.71875 186.097656 L 642.71875 388.21875 L 443.707031 388.21875 Z M 443.707031 186.097656 " fill-opacity="1" fill-rule="nonzero"/></g><g clip-path="url(#5ccbd597df)"><path fill="#f3f5f9" d="M 623.734375 203.75 C 623.183594 204.183594 622.617188 204.652344 622.042969 205.152344 C 621.410156 205.699219 620.820312 206.242188 620.265625 206.773438 C 619.980469 207.035156 619.699219 207.292969 619.417969 207.554688 C 615.960938 210.542969 612.503906 213.527344 609.046875 216.515625 C 608.679688 216.886719 608.308594 217.253906 607.941406 217.625 C 605.917969 219.53125 603.894531 221.4375 601.871094 223.347656 L 600.417969 225.089844 C 599.683594 225.753906 598.949219 226.414062 598.210938 227.078125 L 597.890625 228.953125 L 597.523438 231.09375 L 595.367188 231.808594 C 594.164062 233.386719 592.957031 234.960938 591.75 236.535156 C 590.40625 238.21875 589.066406 239.898438 587.722656 241.582031 L 587.292969 243.644531 L 583.960938 244.128906 L 582.460938 247.742188 L 581.5625 249.898438 L 581.316406 250.488281 L 580.433594 250.878906 L 579.265625 253.226562 L 578.539062 254.683594 L 577.828125 254.769531 L 576.023438 256.621094 L 574.417969 258.269531 L 573.007812 259.71875 L 572.617188 261.964844 L 572.292969 263.8125 L 572.019531 264.050781 L 569.585938 266.144531 L 569.636719 269.519531 L 568.535156 270.945312 L 568.414062 271.074219 L 567.316406 271.453125 L 563.9375 272.625 L 562.824219 276.113281 L 562.773438 276.273438 L 562.558594 276.453125 L 559.097656 279.304688 L 559.945312 282.871094 L 559.660156 283.449219 L 559.035156 284.714844 L 555.882812 285.300781 L 554.503906 289.136719 L 553.890625 290.84375 L 553.136719 292.226562 L 552.09375 294.140625 L 552.132812 294.785156 L 549.585938 296.4375 L 549.761719 297.4375 L 545.992188 298.324219 L 547.863281 305.085938 L 547.910156 305.25 L 546.632812 306.273438 L 544.953125 307.625 L 544.40625 309.285156 L 543.730469 311.339844 L 543.320312 312.230469 L 542.578125 313.105469 L 541.148438 314.785156 L 541.089844 315.300781 L 536.839844 316.890625 L 537.886719 321.441406 L 537.625 321.511719 L 536.714844 322.472656 L 535.097656 324.179688 L 532.734375 326.675781 L 533.46875 329.394531 L 533.613281 329.925781 L 533.097656 330.554688 L 532.902344 331.515625 L 532.648438 332.75 L 532.226562 333.21875 L 531.773438 333.722656 C 531.722656 334.957031 531.667969 336.1875 531.613281 337.421875 C 531.460938 338.550781 531.304688 339.679688 531.152344 340.808594 C 529.90625 342.535156 528.65625 344.261719 527.40625 345.988281 C 526.75 347.832031 526 349.75 525.152344 351.730469 C 523.882812 354.695312 522.546875 357.414062 521.214844 359.878906 C 520.59375 361.402344 519.976562 362.921875 519.355469 364.445312 L 518.753906 365.765625 C 518.113281 366.65625 517.472656 367.542969 516.832031 368.433594 C 516.347656 370.421875 515.867188 372.410156 515.382812 374.394531 L 516.964844 372.867188 C 518.253906 371.1875 519.542969 369.503906 520.832031 367.824219 C 521.433594 367.089844 522.035156 366.359375 522.636719 365.628906 C 522.703125 365.550781 522.765625 365.46875 522.828125 365.390625 C 522.851562 365.15625 522.875 364.921875 522.898438 364.683594 C 524.066406 362.949219 525.234375 361.21875 526.402344 359.488281 C 526.960938 358.761719 527.523438 358.03125 528.085938 357.300781 C 529.195312 355.222656 530.300781 353.144531 531.410156 351.066406 C 532.785156 349.945312 534.160156 348.824219 535.539062 347.707031 C 536.007812 346.277344 536.476562 344.851562 536.949219 343.421875 C 537.441406 342.835938 537.9375 342.25 538.433594 341.660156 C 538.714844 341.222656 538.992188 340.785156 539.273438 340.347656 L 541.03125 338.816406 L 541.839844 338.113281 L 542.386719 336.492188 L 542.609375 335.835938 L 543.578125 334.914062 L 545.378906 333.207031 L 545.160156 331.714844 L 545.191406 331.710938 L 548.386719 331.195312 L 549.632812 327.558594 L 550.378906 325.386719 L 552.347656 324.824219 L 553.132812 320.785156 L 553.175781 320.566406 L 554.058594 319.683594 L 554.621094 318.671875 L 555.722656 316.695312 L 555.800781 316.554688 L 556.03125 315.988281 L 556.082031 315.855469 L 556.640625 315.457031 L 556.703125 315.414062 L 557.058594 315.113281 L 558.859375 313.59375 L 559.679688 312.902344 L 560.378906 311.621094 L 561.464844 309.644531 L 561.757812 309.105469 L 565.652344 308.351562 L 564.96875 303.457031 L 566.675781 302.429688 L 566.5625 298.171875 L 566.558594 298.023438 L 570.441406 297.347656 L 571.585938 292.734375 L 571.925781 291.363281 L 572.539062 290.878906 L 576.152344 288.019531 L 575.34375 284.671875 L 575.589844 283.863281 L 576.503906 283.535156 L 577.664062 282.300781 L 579.238281 280.625 L 579.53125 280.308594 L 579.738281 280.035156 L 580.992188 278.367188 L 582.316406 276.761719 L 584.144531 274.542969 L 584.03125 272.335938 L 584.835938 271.597656 L 585.324219 269.699219 L 585.875 267.574219 L 591.515625 266.5625 L 591.277344 260.785156 L 591.265625 260.558594 L 594.554688 258.886719 L 594.378906 255.230469 L 594.589844 255.179688 L 595.589844 254.3125 L 597.371094 252.765625 L 600.097656 250.402344 L 599.75 247.859375 L 601.03125 247.734375 L 602.324219 245.167969 L 603.34375 243.140625 L 604.550781 240.742188 C 604.90625 239.167969 605.261719 237.59375 605.621094 236.019531 C 606.140625 234.535156 606.660156 233.050781 607.179688 231.566406 C 608.289062 229.289062 609.398438 227.011719 610.503906 224.734375 C 612.273438 222.324219 614.042969 219.914062 615.8125 217.503906 C 616.796875 215.757812 617.78125 214.011719 618.769531 212.261719 C 619.265625 211.457031 619.765625 210.652344 620.265625 209.84375 C 620.910156 208.917969 621.554688 207.992188 622.199219 207.0625 C 623.65625 205.476562 625.117188 203.886719 626.574219 202.296875 L 626.730469 202.101562 C 625.734375 202.652344 624.734375 203.199219 623.734375 203.75 " fill-opacity="1" fill-rule="nonzero"/></g><g clip-path="url(#6895907a41)"><path fill="#f3f5f9" d="M 498.222656 331.457031 L 498.695312 331.050781 C 498.636719 331.289062 498.574219 331.523438 498.515625 331.761719 Z M 604.671875 186.980469 C 593.960938 193.195312 583.871094 200.515625 574.4375 208.636719 L 571.796875 208.8125 L 569.734375 211.917969 L 570.15625 212.417969 C 569.710938 212.824219 569.265625 213.230469 568.824219 213.640625 L 564.40625 214.925781 L 561.429688 220.4375 L 555.808594 222.769531 L 553.734375 228.105469 L 551.378906 230.039062 L 548.09375 230.453125 L 547.621094 233.621094 L 545.011719 235.808594 L 544.964844 239.132812 C 544.867188 239.25 544.769531 239.367188 544.671875 239.488281 L 540.164062 239.859375 L 538.5625 246.378906 L 535.019531 247.695312 L 534.800781 252.4375 L 533.507812 251.375 L 529.335938 251.710938 L 526.746094 255.347656 L 526.039062 258.734375 L 523.59375 258.863281 L 522 259.84375 L 522.992188 263.089844 L 519.027344 265.644531 L 519.058594 271.210938 L 516.671875 271.578125 L 517.03125 274.082031 L 517.683594 275.40625 L 514.980469 278.015625 L 516.105469 280.203125 L 511.648438 283.664062 L 512.054688 289.324219 L 510.695312 294.285156 L 506.644531 297.761719 L 504.269531 302.476562 L 504.597656 308.109375 L 502.121094 312.570312 L 502.242188 317.039062 L 500.433594 320.214844 L 500.402344 322.808594 L 498.558594 327.132812 L 499.542969 327.789062 C 499.34375 328.527344 499.152344 329.261719 498.960938 330 L 496.976562 332.527344 L 498.171875 331.503906 L 498.355469 332.402344 C 495.976562 342.121094 494.28125 351.984375 493.398438 361.910156 C 493.503906 361.53125 493.613281 361.160156 493.71875 360.78125 L 493.546875 361.9375 L 493.863281 360.535156 L 493.851562 360.320312 C 494.046875 359.625 494.25 358.925781 494.449219 358.226562 L 494.4375 358.339844 L 494.601562 357.699219 C 498.378906 344.613281 502.722656 331.804688 507.804688 319.335938 L 508.359375 319.058594 L 513.929688 310.992188 L 513.160156 308.6875 L 514.621094 303.757812 C 514.671875 303.648438 514.722656 303.539062 514.777344 303.425781 L 518.347656 300.140625 L 517.558594 297.632812 C 518.007812 296.714844 518.453125 295.796875 518.914062 294.886719 L 521.898438 293.414062 L 521.195312 290.449219 C 521.386719 290.082031 521.574219 289.714844 521.769531 289.351562 L 525.597656 286.804688 L 530.671875 284.316406 L 532.390625 278.996094 L 537.542969 276.617188 L 537.585938 270.210938 L 541.609375 266.9375 L 542.6875 261.105469 L 547.238281 259.886719 L 546.417969 257.03125 L 549.574219 255.585938 L 550.925781 252.605469 L 550.960938 249.453125 L 552.964844 247.410156 L 553.316406 243.953125 L 556.136719 242.074219 L 556.617188 238.59375 L 557.605469 235.382812 L 560.597656 235.441406 L 561.546875 232.789062 L 561.832031 230.800781 L 565.59375 229.625 L 567.234375 227.6875 L 568.699219 222.757812 L 572.246094 219.257812 L 573.351562 216.878906 C 574.023438 216.160156 574.691406 215.4375 575.371094 214.722656 L 576.328125 214.277344 L 576.265625 213.78125 C 585.21875 204.421875 594.722656 195.523438 604.671875 186.980469 " fill-opacity="1" fill-rule="nonzero"/></g><g clip-path="url(#6cf9004f1d)"><path fill="#f3f5f9" d="M 612.304688 265.042969 L 612.300781 265.050781 C 612.136719 265.125 611.972656 265.191406 611.8125 265.261719 Z M 640.457031 241.828125 C 640.105469 241.949219 639.773438 242.019531 639.476562 242.0625 L 639.761719 241.984375 C 634.71875 246.488281 629.371094 251.050781 623.710938 255.625 C 620.242188 258.429688 616.808594 261.121094 613.414062 263.695312 L 612.914062 264.050781 L 612.316406 265.023438 L 610.308594 265.636719 C 610.234375 266.480469 610.160156 267.324219 610.085938 268.167969 C 608.753906 268.980469 607.421875 269.796875 606.089844 270.609375 L 604.757812 271.902344 L 603.390625 273.222656 L 603.003906 273.597656 L 602.410156 274.550781 L 601.398438 276.167969 L 601.1875 276.507812 L 600.96875 277.085938 L 600.890625 277.148438 L 598.605469 278.851562 L 598.582031 279.070312 L 596.496094 279.550781 L 595.8125 283.195312 C 595.371094 284.011719 594.925781 284.828125 594.484375 285.644531 C 593.535156 286.890625 592.585938 288.140625 591.636719 289.386719 L 591 291.273438 L 590.546875 292.621094 C 590.289062 293.597656 590.03125 294.574219 589.773438 295.550781 C 589.066406 295.839844 588.355469 296.125 587.644531 296.410156 C 588.34375 298.351562 589.003906 301.214844 587.890625 303.96875 C 586.722656 306.839844 584.792969 306.703125 583.324219 309.746094 C 581.597656 313.328125 583.601562 314.902344 581.796875 319.199219 C 580.859375 321.425781 580.113281 321.5 578.65625 324.148438 C 576.933594 327.28125 576.292969 330.242188 576.023438 332.273438 C 575.230469 333.140625 574.433594 334.109375 573.585938 335.125 C 572.371094 336.582031 571.160156 338.113281 571.183594 338.386719 C 571.183594 338.386719 564.421875 356.277344 563.894531 356.679688 C 564.785156 356.523438 566.464844 353.695312 566.464844 353.695312 L 579.808594 334.613281 L 580.054688 334.089844 C 580.417969 333.765625 580.78125 333.4375 581.144531 333.109375 L 581.257812 333.011719 L 581.867188 332.097656 L 582.921875 330.527344 L 583.714844 329.347656 L 583.570312 328.015625 L 584.265625 327.441406 L 584.625 326.027344 L 584.785156 325.929688 L 586.472656 324.902344 L 586.769531 323.75 L 590.195312 322.496094 L 590.109375 318.941406 L 590.742188 318.042969 C 591.085938 317.558594 591.433594 317.078125 591.761719 316.585938 L 592.816406 315.15625 L 593.511719 314.210938 L 593.667969 313.445312 L 596.039062 311.789062 L 596.042969 311.257812 L 599.125 310.410156 L 598.804688 307.351562 L 599.5625 306.328125 L 600.683594 304.820312 L 601.949219 303.117188 L 601.980469 302.210938 L 602.332031 301.957031 L 603.140625 300.121094 L 603.570312 299.140625 C 604.097656 297.636719 604.621094 296.132812 605.148438 294.632812 C 606.445312 293.441406 607.746094 292.25 609.042969 291.058594 C 608.996094 290.109375 608.949219 289.160156 608.898438 288.210938 C 609.949219 287.515625 611 286.816406 612.050781 286.121094 L 612.882812 285.429688 L 613.398438 283.621094 L 613.757812 282.355469 C 614.144531 281.148438 614.535156 279.941406 614.921875 278.734375 C 616.496094 277.503906 618.070312 276.273438 619.644531 275.042969 C 619.945312 273.96875 620.25 272.894531 620.550781 271.820312 C 621.96875 269.253906 623.382812 266.6875 624.796875 264.117188 C 627.035156 261.070312 629.308594 258.007812 631.609375 254.9375 C 635.3125 249.996094 639.011719 245.148438 642.703125 240.386719 C 642.273438 240.828125 641.535156 241.460938 640.457031 241.828125 " fill-opacity="1" fill-rule="nonzero"/></g><g clip-path="url(#aac945d57f)"><path fill="#b20000" d="M 673.792969 175.140625 L 673.792969 292.109375 C 673.789062 293.65625 673.75 295.203125 673.671875 296.75 C 673.597656 298.296875 673.480469 299.839844 673.328125 301.378906 C 673.175781 302.917969 672.984375 304.453125 672.753906 305.984375 C 672.527344 307.515625 672.261719 309.039062 671.957031 310.558594 C 671.652344 312.074219 671.3125 313.585938 670.9375 315.085938 C 670.558594 316.585938 670.144531 318.078125 669.695312 319.558594 C 669.246094 321.039062 668.757812 322.507812 668.238281 323.964844 C 667.714844 325.421875 667.15625 326.863281 666.5625 328.292969 C 665.96875 329.722656 665.34375 331.136719 664.679688 332.535156 C 664.019531 333.933594 663.320312 335.316406 662.589844 336.679688 C 661.863281 338.046875 661.097656 339.390625 660.300781 340.71875 C 659.507812 342.046875 658.679688 343.351562 657.816406 344.636719 C 656.957031 345.925781 656.066406 347.191406 655.144531 348.433594 C 654.222656 349.675781 653.269531 350.894531 652.289062 352.089844 C 651.304688 353.289062 650.296875 354.457031 649.257812 355.605469 C 648.214844 356.753906 647.148438 357.871094 646.054688 358.96875 C 644.960938 360.0625 643.839844 361.128906 642.695312 362.167969 C 641.546875 363.207031 640.375 364.21875 639.179688 365.199219 C 637.984375 366.183594 636.765625 367.132812 635.519531 368.054688 C 634.277344 368.976562 633.011719 369.871094 631.726562 370.730469 C 630.441406 371.589844 629.132812 372.417969 627.804688 373.214844 C 626.480469 374.011719 625.132812 374.773438 623.769531 375.503906 C 622.402344 376.234375 621.023438 376.929688 619.625 377.59375 C 618.226562 378.253906 616.8125 378.882812 615.382812 379.476562 C 613.953125 380.066406 612.507812 380.625 611.050781 381.148438 C 609.59375 381.671875 608.125 382.15625 606.644531 382.605469 C 605.164062 383.058594 603.675781 383.472656 602.171875 383.847656 C 600.671875 384.226562 599.164062 384.566406 597.644531 384.867188 C 596.128906 385.171875 594.605469 385.4375 593.074219 385.667969 C 591.542969 385.894531 590.007812 386.085938 588.46875 386.238281 C 586.925781 386.390625 585.382812 386.507812 583.839844 386.585938 C 582.292969 386.664062 580.746094 386.703125 579.199219 386.703125 L 462.226562 386.703125 L 462.226562 175.140625 L 673.792969 175.140625 M 704.308594 144.625 L 431.714844 144.625 L 431.714844 417.21875 L 579.199219 417.21875 C 581.246094 417.21875 583.292969 417.167969 585.335938 417.066406 C 587.382812 416.96875 589.421875 416.816406 591.460938 416.617188 C 593.5 416.414062 595.53125 416.164062 597.554688 415.863281 C 599.582031 415.5625 601.597656 415.214844 603.605469 414.816406 C 605.613281 414.414062 607.609375 413.964844 609.597656 413.46875 C 611.582031 412.972656 613.554688 412.425781 615.515625 411.832031 C 617.476562 411.238281 619.417969 410.59375 621.347656 409.90625 C 623.273438 409.214844 625.183594 408.480469 627.074219 407.695312 C 628.96875 406.910156 630.839844 406.082031 632.6875 405.207031 C 634.539062 404.332031 636.367188 403.410156 638.175781 402.445312 C 639.980469 401.480469 641.761719 400.472656 643.515625 399.417969 C 645.273438 398.367188 647.003906 397.269531 648.703125 396.132812 C 650.40625 394.996094 652.082031 393.816406 653.726562 392.597656 C 655.371094 391.378906 656.984375 390.121094 658.566406 388.820312 C 660.148438 387.519531 661.699219 386.183594 663.214844 384.808594 C 664.734375 383.433594 666.214844 382.023438 667.664062 380.574219 C 669.109375 379.128906 670.523438 377.644531 671.898438 376.128906 C 673.273438 374.609375 674.609375 373.0625 675.910156 371.476562 C 677.207031 369.894531 678.464844 368.28125 679.6875 366.636719 C 680.90625 364.992188 682.085938 363.320312 683.222656 361.617188 C 684.359375 359.914062 685.453125 358.183594 686.507812 356.429688 C 687.558594 354.671875 688.570312 352.890625 689.535156 351.085938 C 690.5 349.28125 691.417969 347.453125 692.296875 345.601562 C 693.171875 343.75 694 341.878906 694.785156 339.988281 C 695.566406 338.09375 696.304688 336.1875 696.992188 334.257812 C 697.683594 332.332031 698.324219 330.386719 698.917969 328.425781 C 699.515625 326.46875 700.058594 324.496094 700.558594 322.507812 C 701.054688 320.523438 701.503906 318.527344 701.902344 316.519531 C 702.300781 314.507812 702.652344 312.492188 702.953125 310.46875 C 703.253906 308.441406 703.503906 306.410156 703.703125 304.375 C 703.90625 302.335938 704.054688 300.292969 704.15625 298.25 C 704.257812 296.203125 704.308594 294.15625 704.308594 292.109375 Z M 704.308594 144.625 " fill-opacity="1" fill-rule="nonzero"/></g><g fill="#f3f5f9" fill-opacity="1"><g transform="translate(3.35916, 304.544402)"><g><path d="M 99.328125 0 L 77.640625 0 L 64.671875 -37.75 L 36.40625 -37.75 L 36.40625 0 L 15.09375 0 L 15.09375 -135.53125 L 60.984375 -135.53125 C 73.503906 -135.53125 82.988281 -131.109375 89.4375 -122.265625 C 95.894531 -113.421875 99.125 -102.484375 99.125 -89.453125 C 99.125 -83.117188 98.960938 -78.082031 98.640625 -74.34375 C 98.316406 -70.601562 96.992188 -65.765625 94.671875 -59.828125 C 92.347656 -53.890625 88.863281 -48.921875 84.21875 -44.921875 Z M 36.40625 -58.078125 L 55.953125 -58.078125 C 59.953125 -58.078125 63.335938 -58.851562 66.109375 -60.40625 C 68.890625 -61.957031 70.925781 -63.664062 72.21875 -65.53125 C 73.507812 -67.40625 74.539062 -70.050781 75.3125 -73.46875 C 76.082031 -76.894531 76.5 -79.570312 76.5625 -81.5 C 76.632812 -83.4375 76.671875 -86.085938 76.671875 -89.453125 C 76.671875 -99.390625 74.671875 -105.96875 70.671875 -109.1875 C 66.671875 -112.414062 60.472656 -114.03125 52.078125 -114.03125 L 36.40625 -114.03125 Z M 36.40625 -58.078125 "/></g></g></g><g fill="#f3f5f9" fill-opacity="1"><g transform="translate(112.555102, 304.544402)"><g><path d="M 93.515625 -97.96875 L 93.515625 -35.8125 C 93.515625 -22.78125 89.546875 -13.195312 81.609375 -7.0625 C 73.671875 -0.9375 64.148438 2.125 53.046875 2.125 C 41.953125 2.125 32.367188 -0.9375 24.296875 -7.0625 C 16.234375 -13.195312 12.203125 -22.78125 12.203125 -35.8125 L 12.203125 -98.15625 C 12.203125 -111.457031 15.847656 -121.523438 23.140625 -128.359375 C 30.429688 -135.203125 40.460938 -138.625 53.234375 -138.625 C 66.015625 -138.625 75.921875 -135.007812 82.953125 -127.78125 C 89.992188 -120.550781 93.515625 -110.613281 93.515625 -97.96875 Z M 72.21875 -39.890625 L 72.21875 -91 C 72.21875 -99.257812 70.957031 -105.421875 68.4375 -109.484375 C 65.925781 -113.546875 60.734375 -115.578125 52.859375 -115.578125 C 44.984375 -115.578125 39.785156 -113.609375 37.265625 -109.671875 C 34.753906 -105.742188 33.5 -99.582031 33.5 -91.1875 L 33.5 -39.5 C 33.5 -33.300781 35.078125 -28.425781 38.234375 -24.875 C 41.398438 -21.320312 46.273438 -19.546875 52.859375 -19.546875 C 58.921875 -19.546875 63.660156 -21.414062 67.078125 -25.15625 C 70.503906 -28.90625 72.21875 -33.816406 72.21875 -39.890625 Z M 72.21875 -39.890625 "/></g></g></g><g fill="#f3f5f9" fill-opacity="1"><g transform="translate(218.846913, 304.544402)"><g><path d="M 93.515625 -97.96875 L 93.515625 -35.8125 C 93.515625 -22.78125 89.546875 -13.195312 81.609375 -7.0625 C 73.671875 -0.9375 64.148438 2.125 53.046875 2.125 C 41.953125 2.125 32.367188 -0.9375 24.296875 -7.0625 C 16.234375 -13.195312 12.203125 -22.78125 12.203125 -35.8125 L 12.203125 -98.15625 C 12.203125 -111.457031 15.847656 -121.523438 23.140625 -128.359375 C 30.429688 -135.203125 40.460938 -138.625 53.234375 -138.625 C 66.015625 -138.625 75.921875 -135.007812 82.953125 -127.78125 C 89.992188 -120.550781 93.515625 -110.613281 93.515625 -97.96875 Z M 72.21875 -39.890625 L 72.21875 -91 C 72.21875 -99.257812 70.957031 -105.421875 68.4375 -109.484375 C 65.925781 -113.546875 60.734375 -115.578125 52.859375 -115.578125 C 44.984375 -115.578125 39.785156 -113.609375 37.265625 -109.671875 C 34.753906 -105.742188 33.5 -99.582031 33.5 -91.1875 L 33.5 -39.5 C 33.5 -33.300781 35.078125 -28.425781 38.234375 -24.875 C 41.398438 -21.320312 46.273438 -19.546875 52.859375 -19.546875 C 58.921875 -19.546875 63.660156 -21.414062 67.078125 -25.15625 C 70.503906 -28.90625 72.21875 -33.816406 72.21875 -39.890625 Z M 72.21875 -39.890625 "/></g></g></g><g fill="#f3f5f9" fill-opacity="1"><g transform="translate(325.138724, 304.544402)"><g><path d="M 49.171875 0 L 27.875 0 L 27.875 -114.03125 L 0 -114.03125 L 0 -135.53125 L 77.828125 -135.53125 L 77.828125 -114.03125 L 49.171875 -114.03125 Z M 49.171875 0 "/></g></g></g><g fill="#f3f5f9" fill-opacity="1"><g transform="translate(10.960953, 409.855299)"><g><path d="M 24.09375 -67.21875 C 27.71875 -67.21875 32.453125 -66.679688 38.296875 -65.609375 L 38.09375 -58.046875 C 32.582031 -59.117188 27.914062 -59.65625 24.09375 -59.65625 C 20.1875 -59.65625 17.375 -58.882812 15.65625 -57.34375 C 13.945312 -55.800781 13.09375 -53.453125 13.09375 -50.296875 L 13.09375 -47.671875 C 13.09375 -45.992188 13.3125 -44.664062 13.75 -43.6875 C 14.1875 -42.71875 14.976562 -41.878906 16.125 -41.171875 C 17.269531 -40.460938 18.984375 -39.738281 21.265625 -39 L 30.640625 -35.875 C 35.140625 -34.332031 38.3125 -32.285156 40.15625 -29.734375 C 42.007812 -27.179688 42.9375 -23.453125 42.9375 -18.546875 L 42.9375 -16.625 C 42.9375 -10.644531 41.203125 -6.175781 37.734375 -3.21875 C 34.273438 -0.269531 28.617188 1.203125 20.765625 1.203125 C 16.929688 1.203125 12.023438 0.53125 6.046875 -0.8125 L 6.25 -8.5625 C 11.820312 -7.21875 16.59375 -6.546875 20.5625 -6.546875 C 25.601562 -6.546875 29.160156 -7.300781 31.234375 -8.8125 C 33.316406 -10.320312 34.359375 -12.691406 34.359375 -15.921875 L 34.359375 -19.25 C 34.359375 -21.601562 33.835938 -23.398438 32.796875 -24.640625 C 31.753906 -25.878906 29.925781 -26.9375 27.3125 -27.8125 L 16.9375 -31.234375 C 12.300781 -32.785156 9.070312 -34.785156 7.25 -37.234375 C 5.4375 -39.691406 4.53125 -43.40625 4.53125 -48.375 L 4.53125 -49.484375 C 4.53125 -55.328125 6.09375 -59.742188 9.21875 -62.734375 C 12.34375 -65.722656 17.300781 -67.21875 24.09375 -67.21875 Z M 24.09375 -67.21875 "/></g></g></g><g fill="#f3f5f9" fill-opacity="1"><g transform="translate(62.454357, 409.855299)"><g><path d="M 28.515625 -67.21875 C 31.140625 -67.21875 33.976562 -66.960938 37.03125 -66.453125 C 40.09375 -65.953125 41.890625 -65.671875 42.421875 -65.609375 L 42.234375 -58.046875 C 36.316406 -59.117188 31.742188 -59.65625 28.515625 -59.65625 C 23.953125 -59.65625 20.660156 -58.710938 18.640625 -56.828125 C 16.628906 -54.953125 15.625 -51.832031 15.625 -47.46875 L 15.625 -18.640625 C 15.625 -14.273438 16.613281 -11.164062 18.59375 -9.3125 C 20.570312 -7.46875 23.878906 -6.546875 28.515625 -6.546875 C 31.742188 -6.546875 36.316406 -7.082031 42.234375 -8.15625 L 42.421875 -0.40625 C 41.890625 -0.332031 40.09375 -0.046875 37.03125 0.453125 C 33.976562 0.953125 31.140625 1.203125 28.515625 1.203125 C 20.796875 1.203125 15.285156 -0.441406 11.984375 -3.734375 C 8.691406 -7.023438 7.046875 -12.160156 7.046875 -19.140625 L 7.046875 -46.859375 C 7.046875 -53.847656 8.691406 -58.988281 11.984375 -62.28125 C 15.285156 -65.570312 20.796875 -67.21875 28.515625 -67.21875 Z M 28.515625 -67.21875 "/></g></g></g><g fill="#f3f5f9" fill-opacity="1"><g transform="translate(115.459274, 409.855299)"><g><path d="M 25.09375 -67.21875 C 33.019531 -67.21875 38.863281 -65.671875 42.625 -62.578125 C 46.394531 -59.492188 48.28125 -55.160156 48.28125 -49.578125 L 48.28125 -47.0625 C 48.28125 -43.164062 47.203125 -39.722656 45.046875 -36.734375 C 42.898438 -33.742188 39.8125 -31.644531 35.78125 -30.4375 L 52.90625 0 L 43.328125 0 L 27.3125 -28.625 C 26.769531 -28.550781 25.695312 -28.515625 24.09375 -28.515625 C 21.40625 -28.515625 18.75 -28.617188 16.125 -28.828125 L 16.125 0 L 7.5625 0 L 7.5625 -66.8125 C 15.082031 -67.082031 20.925781 -67.21875 25.09375 -67.21875 Z M 24.890625 -59.96875 C 22.671875 -59.96875 19.75 -59.898438 16.125 -59.765625 L 16.125 -35.984375 C 19.75 -35.640625 22.769531 -35.46875 25.1875 -35.46875 C 34.863281 -35.46875 39.703125 -39.398438 39.703125 -47.265625 L 39.703125 -49.28125 C 39.703125 -52.90625 38.523438 -55.59375 36.171875 -57.34375 C 33.828125 -59.09375 30.066406 -59.96875 24.890625 -59.96875 Z M 24.890625 -59.96875 "/></g></g></g><g fill="#f3f5f9" fill-opacity="1"><g transform="translate(174.913343, 409.855299)"><g><path d="M 32.046875 -66.015625 L 52.3125 0 L 43.03125 0 L 38.703125 -15.3125 L 14.40625 -15.3125 L 10.078125 0 L 1.3125 0 L 21.46875 -66.015625 Z M 26.609375 -58.15625 L 16.53125 -22.984375 L 36.578125 -22.984375 Z M 26.609375 -58.15625 "/></g></g></g><g fill="#f3f5f9" fill-opacity="1"><g transform="translate(233.561246, 409.855299)"><g><path d="M 49.890625 -66.015625 L 49.890625 -58.25 L 30.734375 -58.25 L 30.734375 0 L 22.171875 0 L 22.171875 -58.25 L 3.015625 -58.25 L 3.015625 -66.015625 Z M 49.890625 -66.015625 "/></g></g></g><g fill="#f3f5f9" fill-opacity="1"><g transform="translate(291.503793, 409.855299)"><g><path d="M 28.515625 -67.21875 C 31.140625 -67.21875 33.976562 -66.960938 37.03125 -66.453125 C 40.09375 -65.953125 41.890625 -65.671875 42.421875 -65.609375 L 42.234375 -58.046875 C 36.316406 -59.117188 31.742188 -59.65625 28.515625 -59.65625 C 23.953125 -59.65625 20.660156 -58.710938 18.640625 -56.828125 C 16.628906 -54.953125 15.625 -51.832031 15.625 -47.46875 L 15.625 -18.640625 C 15.625 -14.273438 16.613281 -11.164062 18.59375 -9.3125 C 20.570312 -7.46875 23.878906 -6.546875 28.515625 -6.546875 C 31.742188 -6.546875 36.316406 -7.082031 42.234375 -8.15625 L 42.421875 -0.40625 C 41.890625 -0.332031 40.09375 -0.046875 37.03125 0.453125 C 33.976562 0.953125 31.140625 1.203125 28.515625 1.203125 C 20.796875 1.203125 15.285156 -0.441406 11.984375 -3.734375 C 8.691406 -7.023438 7.046875 -12.160156 7.046875 -19.140625 L 7.046875 -46.859375 C 7.046875 -53.847656 8.691406 -58.988281 11.984375 -62.28125 C 15.285156 -65.570312 20.796875 -67.21875 28.515625 -67.21875 Z M 28.515625 -67.21875 "/></g></g></g><g fill="#f3f5f9" fill-opacity="1"><g transform="translate(344.508721, 409.855299)"><g><path d="M 50.890625 -66.015625 L 50.890625 0 L 42.328125 0 L 42.328125 -30.234375 L 16.125 -30.234375 L 16.125 0 L 7.5625 0 L 7.5625 -66.015625 L 16.125 -66.015625 L 16.125 -37.890625 L 42.328125 -37.890625 L 42.328125 -66.015625 Z M 50.890625 -66.015625 "/></g></g></g></svg>